<svg xmlns="http://www.w3.org/2000/svg" width="632" height="404.0" viewBox="0 0 316 202" fill="none" >
<title>Illustration · Connexions</title>
<g id="connexions"><line x1="158" y1="101" x2="60" y2="50" stroke="#123B4A" stroke-width="1.4" opacity=".35"/><line x1="158" y1="101" x2="70" y2="150" stroke="#123B4A" stroke-width="1.4" opacity=".35"/><line x1="158" y1="101" x2="150" y2="28" stroke="#123B4A" stroke-width="1.4" opacity=".35"/><line x1="158" y1="101" x2="150" y2="176" stroke="#123B4A" stroke-width="1.4" opacity=".35"/><line x1="158" y1="101" x2="250" y2="46" stroke="#123B4A" stroke-width="1.4" opacity=".35"/><line x1="158" y1="101" x2="262" y2="156" stroke="#123B4A" stroke-width="1.4" opacity=".35"/><line x1="158" y1="101" x2="210" y2="100" stroke="#123B4A" stroke-width="1.4" opacity=".35"/><circle cx="60" cy="50" r="7" fill="#fff" stroke="#138A8A" stroke-width="3"/><circle cx="70" cy="150" r="7" fill="#fff" stroke="#3B8DFF" stroke-width="3"/><circle cx="150" cy="28" r="7" fill="#fff" stroke="#138A8A" stroke-width="3"/><circle cx="150" cy="176" r="7" fill="#fff" stroke="#3B8DFF" stroke-width="3"/><circle cx="250" cy="46" r="7" fill="#fff" stroke="#138A8A" stroke-width="3"/><circle cx="262" cy="156" r="7" fill="#fff" stroke="#3B8DFF" stroke-width="3"/><circle cx="210" cy="100" r="7" fill="#fff" stroke="#138A8A" stroke-width="3"/><rect x="138" y="81" width="40" height="40" rx="10" fill="#123B4A"/><rect x="149" y="92" width="18" height="18" rx="4" fill="#3B8DFF"/></g>
</svg>
