<svg xmlns="http://www.w3.org/2000/svg" width="1216" height="710.0" viewBox="0 0 1216 710" fill="none" >
<title>Palette SIMANDOU IMMO</title>
<rect width="1216" height="710" fill="#F7F9F8"/><g id="Deep-Navy"><rect x="40" y="40" width="216" height="300" rx="20" fill="#123B4A" stroke="#DCE4E5"/><text x="60" y="268" font-family="Poppins, Arial, sans-serif" font-size="20" font-weight="500" fill="#fff">Deep Navy</text><text x="60" y="304" font-family="Poppins, Arial, sans-serif" font-size="26" font-weight="500" fill="#fff">#123B4A</text><text x="60" y="326" font-family="Arial, sans-serif" font-size="12" fill="#fff" fill-opacity=".8">RGB 18, 59, 74</text></g><g id="Digital-Teal"><rect x="272" y="40" width="216" height="300" rx="20" fill="#138A8A" stroke="#DCE4E5"/><text x="292" y="268" font-family="Poppins, Arial, sans-serif" font-size="20" font-weight="500" fill="#fff">Digital Teal</text><text x="292" y="304" font-family="Poppins, Arial, sans-serif" font-size="26" font-weight="500" fill="#fff">#138A8A</text><text x="292" y="326" font-family="Arial, sans-serif" font-size="12" fill="#fff" fill-opacity=".8">RGB 19, 138, 138</text></g><g id="Structural-Blue"><rect x="504" y="40" width="216" height="300" rx="20" fill="#2A67B1" stroke="#DCE4E5"/><text x="524" y="268" font-family="Poppins, Arial, sans-serif" font-size="20" font-weight="500" fill="#fff">Structural Blue</text><text x="524" y="304" font-family="Poppins, Arial, sans-serif" font-size="26" font-weight="500" fill="#fff">#2A67B1</text><text x="524" y="326" font-family="Arial, sans-serif" font-size="12" fill="#fff" fill-opacity=".8">RGB 42, 103, 177</text></g><g id="Bright-Blue"><rect x="736" y="40" width="216" height="300" rx="20" fill="#3B8DFF" stroke="#DCE4E5"/><text x="756" y="268" font-family="Poppins, Arial, sans-serif" font-size="20" font-weight="500" fill="#fff">Bright Blue</text><text x="756" y="304" font-family="Poppins, Arial, sans-serif" font-size="26" font-weight="500" fill="#fff">#3B8DFF</text><text x="756" y="326" font-family="Arial, sans-serif" font-size="12" fill="#fff" fill-opacity=".8">RGB 59, 141, 255</text></g><g id="White"><rect x="968" y="40" width="216" height="300" rx="20" fill="#FFFFFF" stroke="#DCE4E5"/><text x="988" y="268" font-family="Poppins, Arial, sans-serif" font-size="20" font-weight="500" fill="#123B4A">White</text><text x="988" y="304" font-family="Poppins, Arial, sans-serif" font-size="26" font-weight="500" fill="#123B4A">#FFFFFF</text><text x="988" y="326" font-family="Arial, sans-serif" font-size="12" fill="#123B4A" fill-opacity=".8">RGB 255, 255, 255</text></g><defs><linearGradient id="d" x1="0" y1="0" x2="1" y2="1"><stop offset="0" stop-color="#3B8DFF"/><stop offset="1" stop-color="#138A8A"/></linearGradient></defs><g id="Degrade-officiel"><rect x="40" y="364" width="1136" height="70" rx="16" fill="url(#d)"/><text x="62" y="406" font-family="Poppins, Arial, sans-serif" font-size="20" font-weight="500" fill="#fff">Dégradé officiel · #3B8DFF → #138A8A</text></g><g id="Neutre-White"><rect x="40" y="470" width="93" height="70" rx="12" fill="#FFFFFF" stroke="#DCE4E5"/><text x="40" y="562" font-family="Arial, sans-serif" font-size="10.5" font-weight="700" fill="#243238">White</text><text x="40" y="577" font-family="Arial, sans-serif" font-size="10" fill="#66747A">#FFFFFF</text></g><g id="Neutre-Background"><rect x="143" y="470" width="93" height="70" rx="12" fill="#F7F9F8" stroke="#DCE4E5"/><text x="143" y="562" font-family="Arial, sans-serif" font-size="10.5" font-weight="700" fill="#243238">Background</text><text x="143" y="577" font-family="Arial, sans-serif" font-size="10" fill="#66747A">#F7F9F8</text></g><g id="Neutre-Surface-subtle"><rect x="246" y="470" width="93" height="70" rx="12" fill="#EEF2F1" stroke="#DCE4E5"/><text x="246" y="562" font-family="Arial, sans-serif" font-size="10.5" font-weight="700" fill="#243238">Surface subtle</text><text x="246" y="577" font-family="Arial, sans-serif" font-size="10" fill="#66747A">#EEF2F1</text></g><g id="Neutre-Border"><rect x="349" y="470" width="93" height="70" rx="12" fill="#DCE4E5" stroke="#DCE4E5"/><text x="349" y="562" font-family="Arial, sans-serif" font-size="10.5" font-weight="700" fill="#243238">Border</text><text x="349" y="577" font-family="Arial, sans-serif" font-size="10" fill="#66747A">#DCE4E5</text></g><g id="Neutre-Border-strong"><rect x="452" y="470" width="93" height="70" rx="12" fill="#CBD5D7" stroke="#DCE4E5"/><text x="452" y="562" font-family="Arial, sans-serif" font-size="10.5" font-weight="700" fill="#243238">Border strong</text><text x="452" y="577" font-family="Arial, sans-serif" font-size="10" fill="#66747A">#CBD5D7</text></g><g id="Neutre-Gray-400"><rect x="555" y="470" width="93" height="70" rx="12" fill="#9AA9AE" stroke="#DCE4E5"/><text x="555" y="562" font-family="Arial, sans-serif" font-size="10.5" font-weight="700" fill="#243238">Gray 400</text><text x="555" y="577" font-family="Arial, sans-serif" font-size="10" fill="#66747A">#9AA9AE</text></g><g id="Neutre-Muted"><rect x="658" y="470" width="93" height="70" rx="12" fill="#66747A" stroke="#DCE4E5"/><text x="658" y="562" font-family="Arial, sans-serif" font-size="10.5" font-weight="700" fill="#243238">Muted</text><text x="658" y="577" font-family="Arial, sans-serif" font-size="10" fill="#66747A">#66747A</text></g><g id="Neutre-Gray-700"><rect x="761" y="470" width="93" height="70" rx="12" fill="#4A5A60" stroke="#DCE4E5"/><text x="761" y="562" font-family="Arial, sans-serif" font-size="10.5" font-weight="700" fill="#243238">Gray 700</text><text x="761" y="577" font-family="Arial, sans-serif" font-size="10" fill="#66747A">#4A5A60</text></g><g id="Neutre-Gray-800"><rect x="864" y="470" width="93" height="70" rx="12" fill="#34444A" stroke="#DCE4E5"/><text x="864" y="562" font-family="Arial, sans-serif" font-size="10.5" font-weight="700" fill="#243238">Gray 800</text><text x="864" y="577" font-family="Arial, sans-serif" font-size="10" fill="#66747A">#34444A</text></g><g id="Neutre-Gray-900"><rect x="967" y="470" width="93" height="70" rx="12" fill="#243238" stroke="#DCE4E5"/><text x="967" y="562" font-family="Arial, sans-serif" font-size="10.5" font-weight="700" fill="#243238">Gray 900</text><text x="967" y="577" font-family="Arial, sans-serif" font-size="10" fill="#66747A">#243238</text></g><g id="Neutre-Ink"><rect x="1070" y="470" width="93" height="70" rx="12" fill="#172126" stroke="#DCE4E5"/><text x="1070" y="562" font-family="Arial, sans-serif" font-size="10.5" font-weight="700" fill="#243238">Ink</text><text x="1070" y="577" font-family="Arial, sans-serif" font-size="10" fill="#66747A">#172126</text></g><g id="Fonctionnelle-Success"><rect x="40" y="610" width="130" height="60" rx="12" fill="#18794E"/><rect x="182" y="610" width="130" height="60" rx="12" fill="#E8F5EE" stroke="#DCE4E5"/><text x="40" y="692" font-family="Arial, sans-serif" font-size="11" font-weight="700" fill="#243238">Success · #18794E / #E8F5EE</text></g><g id="Fonctionnelle-Warning"><rect x="324" y="610" width="130" height="60" rx="12" fill="#A15C00"/><rect x="466" y="610" width="130" height="60" rx="12" fill="#FFF4DE" stroke="#DCE4E5"/><text x="324" y="692" font-family="Arial, sans-serif" font-size="11" font-weight="700" fill="#243238">Warning · #A15C00 / #FFF4DE</text></g><g id="Fonctionnelle-Danger"><rect x="608" y="610" width="130" height="60" rx="12" fill="#B42318"/><rect x="750" y="610" width="130" height="60" rx="12" fill="#FDECEA" stroke="#DCE4E5"/><text x="608" y="692" font-family="Arial, sans-serif" font-size="11" font-weight="700" fill="#243238">Danger · #B42318 / #FDECEA</text></g><g id="Fonctionnelle-Info"><rect x="892" y="610" width="130" height="60" rx="12" fill="#1769AA"/><rect x="1034" y="610" width="130" height="60" rx="12" fill="#E8F2FA" stroke="#DCE4E5"/><text x="892" y="692" font-family="Arial, sans-serif" font-size="11" font-weight="700" fill="#243238">Info · #1769AA / #E8F2FA</text></g>
</svg>
